<svg width="134" height="38" viewBox="0 0 134 38" fill="none" xmlns="http://www.w3.org/2000/svg">
<path d="M-1.3411e-06 25.6C-1.3411e-06 25.2 0.106665 24.6533 0.319999 23.96C2.58667 16.7867 5.08 10.12 7.8 3.96C8.94667 1.32 10.8533 0 13.52 0C16.48 0 18.4667 1.37333 19.48 4.12L26.72 23.6C26.9867 24.4533 27.12 25.2 27.12 25.84C27.12 26.6933 26.7733 27.5067 26.08 28.28C25.4133 29.0267 24.56 29.4 23.52 29.4C22.2667 29.4 21.32 29.0533 20.68 28.36C20.0667 27.6667 19.56 26.7067 19.16 25.48C18.84 24.52 18.28 23.8533 17.48 23.48C16.7067 23.08 15.4267 22.88 13.64 22.88C11.72 22.88 10.36 23.08 9.56 23.48C8.78667 23.8533 8.2 24.5333 7.8 25.52C7.26667 26.8 6.69333 27.7333 6.08 28.32C5.46667 28.9067 4.6 29.2 3.48 29.2C2.36 29.2 1.49333 28.84 0.879999 28.12C0.293332 27.4 -1.3411e-06 26.56 -1.3411e-06 25.6ZM11.04 15.32C11.04 16.6533 11.8533 17.32 13.48 17.32C15.0267 17.32 15.8 16.5333 15.8 14.96C15.8 14.48 15.72 13.9333 15.56 13.32C15.4267 12.68 15.1733 12.0667 14.8 11.48C14.4267 10.8933 13.9867 10.6 13.48 10.6C12.7867 10.6 12.2 11.1867 11.72 12.36C11.2667 13.5067 11.04 14.4933 11.04 15.32ZM28.165 12.08C28.165 8.98667 29.2717 7.44 31.485 7.44C32.0183 7.44 32.5917 7.48 33.205 7.56C33.845 7.61333 34.3517 7.64 34.725 7.64C35.285 7.64 36.205 7.53333 37.485 7.32C38.7917 7.08 39.885 6.96 40.765 6.96C43.405 6.96 45.565 8.02667 47.245 10.16C48.925 12.2933 49.7783 15.0933 49.805 18.56C49.8317 22.0533 48.9917 24.92 47.285 27.16C45.5783 29.3733 43.3383 30.48 40.565 30.48C40.005 30.48 39.2583 30.36 38.325 30.12C37.4183 29.88 36.7117 29.76 36.205 29.76C35.5383 29.76 35.125 30.0133 34.965 30.52C34.805 31.0533 34.725 32.0933 34.725 33.64C34.725 35.08 34.4983 36.12 34.045 36.76C33.6183 37.4 32.8583 37.72 31.765 37.72C30.6183 37.72 29.725 37.3733 29.085 36.68C28.4717 35.9867 28.165 34.9733 28.165 33.64V12.08ZM38.685 12.92C37.1917 12.92 36.1517 13.44 35.565 14.48C34.9783 15.52 34.685 16.9733 34.685 18.84C34.685 20.4133 34.9783 21.6533 35.565 22.56C36.1783 23.44 37.2717 23.8667 38.845 23.84C41.1383 23.8133 42.285 21.92 42.285 18.16C42.285 16.6667 41.965 15.4267 41.325 14.44C40.7117 13.4267 39.8317 12.92 38.685 12.92ZM50.8759 12.08C50.8759 8.98667 51.9826 7.44 54.1959 7.44C54.7293 7.44 55.3026 7.48 55.9159 7.56C56.5559 7.61333 57.0626 7.64 57.4359 7.64C57.9959 7.64 58.9159 7.53333 60.1959 7.32C61.5026 7.08 62.5959 6.96 63.4759 6.96C66.1159 6.96 68.2759 8.02667 69.9559 10.16C71.6359 12.2933 72.4893 15.0933 72.5159 18.56C72.5426 22.0533 71.7026 24.92 69.9959 27.16C68.2893 29.3733 66.0493 30.48 63.2759 30.48C62.7159 30.48 61.9693 30.36 61.0359 30.12C60.1293 29.88 59.4226 29.76 58.9159 29.76C58.2493 29.76 57.8359 30.0133 57.6759 30.52C57.5159 31.0533 57.4359 32.0933 57.4359 33.64C57.4359 35.08 57.2093 36.12 56.7559 36.76C56.3293 37.4 55.5693 37.72 54.4759 37.72C53.3293 37.72 52.4359 37.3733 51.7959 36.68C51.1826 35.9867 50.8759 34.9733 50.8759 33.64V12.08ZM61.3959 12.92C59.9026 12.92 58.8626 13.44 58.2759 14.48C57.6893 15.52 57.3959 16.9733 57.3959 18.84C57.3959 20.4133 57.6893 21.6533 58.2759 22.56C58.8893 23.44 59.9826 23.8667 61.5559 23.84C63.8493 23.8133 64.9959 21.92 64.9959 18.16C64.9959 16.6667 64.6759 15.4267 64.0359 14.44C63.4226 13.4267 62.5426 12.92 61.3959 12.92ZM70.8669 10C70.8669 8.56 71.6135 7.69333 73.1069 7.4C73.8535 7.24 74.2535 6.54667 74.3069 5.32C74.3602 3.98667 74.6135 3.04 75.0669 2.48C75.5202 1.89333 76.2669 1.6 77.3069 1.6C78.4802 1.6 79.2802 1.88 79.7069 2.44C80.1335 3 80.3602 3.89333 80.3869 5.12C80.4402 6.45333 80.8269 7.21333 81.5469 7.4C82.5335 7.61333 83.2802 7.92 83.7869 8.32C84.2935 8.72 84.5469 9.30667 84.5469 10.08C84.5469 11.3067 84.0002 12.12 82.9069 12.52C81.2802 13.16 80.4669 14.3867 80.4669 16.2V21.8C80.4669 23.0533 80.9469 23.72 81.9069 23.8C83.6669 23.96 84.5469 24.84 84.5469 26.44C84.5469 28.4133 83.2535 29.4 80.6669 29.4C78.3735 29.4 76.6669 28.9867 75.5469 28.16C74.4535 27.3067 73.9069 25.8 73.9069 23.64V14.64C73.9069 13.5733 73.6402 12.9467 73.1069 12.76C72.3069 12.4667 71.7335 12.1333 71.3869 11.76C71.0402 11.36 70.8669 10.7733 70.8669 10ZM83.7687 25.36V11.28C83.7687 10.2667 84.1687 9.4 84.9687 8.68C85.7687 7.93333 86.7554 7.56 87.9287 7.56C88.4087 7.56 88.9154 7.62667 89.4487 7.76C89.9821 7.86667 90.4887 7.92 90.9687 7.92C91.2887 7.92 91.7687 7.85333 92.4087 7.72C93.0487 7.58667 93.5554 7.52 93.9287 7.52C94.7821 7.52 95.5154 7.78667 96.1287 8.32C96.7687 8.85333 97.0887 9.56 97.0887 10.44C97.0887 11.3467 96.8754 12.04 96.4487 12.52C96.0487 13 95.5554 13.3333 94.9687 13.52C94.3821 13.68 93.7954 13.88 93.2087 14.12C92.6221 14.3333 92.1154 14.7867 91.6887 15.48C91.2887 16.1467 91.0887 17.08 91.0887 18.28V25.32C91.0887 26.44 90.7821 27.36 90.1687 28.08C89.5554 28.8 88.6354 29.16 87.4087 29.16C86.2087 29.16 85.3021 28.8133 84.6887 28.12C84.0754 27.4 83.7687 26.48 83.7687 25.36ZM104.152 29.72C100.579 29.6933 97.8858 28.6533 96.0725 26.6C94.2592 24.52 93.3658 21.6133 93.3925 17.88C93.4192 14.6 94.3525 11.9733 96.1925 10C98.0325 8 100.619 6.98667 103.952 6.96C106.459 6.93333 108.766 7.66667 110.872 9.16C112.979 10.6533 114.032 12.68 114.032 15.24C114.032 16.8133 113.299 17.9733 111.832 18.72C110.392 19.44 108.766 19.8 106.952 19.8C106.419 19.8 105.699 19.7467 104.792 19.64C103.886 19.5333 103.246 19.48 102.872 19.48C102.179 19.48 101.552 19.6533 100.992 20C100.432 20.32 100.152 20.8933 100.152 21.72C100.179 22.7067 100.552 23.5067 101.272 24.12C101.992 24.7333 103.072 25.04 104.512 25.04C105.312 25.04 106.032 24.8267 106.672 24.4C107.339 23.9733 107.819 23.4933 108.112 22.96C108.779 21.8933 109.672 21.36 110.792 21.36C111.432 21.36 112.032 21.5867 112.592 22.04C113.152 22.4667 113.432 23.0133 113.432 23.68C113.432 24.9333 112.899 26.04 111.832 27C110.792 27.96 109.579 28.6667 108.192 29.12C106.832 29.5467 105.486 29.7467 104.152 29.72ZM103.952 12.12C103.259 12.1467 102.726 12.3067 102.352 12.6C102.006 12.8933 101.832 13.2533 101.832 13.68C101.832 14.48 102.432 14.88 103.632 14.88C105.312 14.88 106.152 14.4133 106.152 13.48C106.152 12.5467 105.419 12.0933 103.952 12.12ZM123.348 29.72C119.774 29.6933 117.081 28.6533 115.268 26.6C113.454 24.52 112.561 21.6133 112.588 17.88C112.614 14.6 113.548 11.9733 115.388 10C117.228 8 119.814 6.98667 123.148 6.96C125.654 6.93333 127.961 7.66667 130.068 9.16C132.174 10.6533 133.228 12.68 133.228 15.24C133.228 16.8133 132.494 17.9733 131.028 18.72C129.588 19.44 127.961 19.8 126.148 19.8C125.614 19.8 124.894 19.7467 123.988 19.64C123.081 19.5333 122.441 19.48 122.068 19.48C121.374 19.48 120.748 19.6533 120.188 20C119.628 20.32 119.348 20.8933 119.348 21.72C119.374 22.7067 119.748 23.5067 120.468 24.12C121.188 24.7333 122.268 25.04 123.708 25.04C124.508 25.04 125.228 24.8267 125.868 24.4C126.534 23.9733 127.014 23.4933 127.308 22.96C127.974 21.8933 128.868 21.36 129.988 21.36C130.628 21.36 131.228 21.5867 131.788 22.04C132.348 22.4667 132.628 23.0133 132.628 23.68C132.628 24.9333 132.094 26.04 131.028 27C129.988 27.96 128.774 28.6667 127.388 29.12C126.028 29.5467 124.681 29.7467 123.348 29.72ZM123.148 12.12C122.454 12.1467 121.921 12.3067 121.548 12.6C121.201 12.8933 121.028 13.2533 121.028 13.68C121.028 14.48 121.628 14.88 122.828 14.88C124.508 14.88 125.348 14.4133 125.348 13.48C125.348 12.5467 124.614 12.0933 123.148 12.12Z" fill="white"/>
</svg>
